<svg width="130" height="25" viewBox="0 0 130 25" fill="none" xmlns="http://www.w3.org/2000/svg">
    <g transform="translate(0.000000,1080.000000) scale(0.100000,-0.100000)" fill="#000000" stroke="none">
        <path d="M0 5400 l0 -5400 5400 0 5400 0 0 5400 0 5400 -5400 0 -5400 0 0 -5400z m6095 1380 c18 -11 40 -36 49 -54 19 -39 21 -117 5 -149 -50 -97 -186 -125 -274 -55 -69 54 -73 183 -7 241 55 49 162 57 227 17z m503 -4 c26 -25 2 -40 -34 -21 -38 20 -57 19 -85 -4 -20 -16 -22 -22 -12 -43 8 -18 26 -28 72 -41 73 -20 97 -48 87 -102 -10 -51 -48 -71 -128 -67 -37 3 -87 46 -71 63 9 9 18 7 39 -10 45 -36 124 -21 124 24 0 32 -16 46 -70 61 -68 19 -91 40 -92 83 -1 33 15 58 47 72 29 13 104 4 123 -15z m333 -116 c26 -74 48 -141 48 -147 1..."/>
    </g>
</svg>
